HIERARCHY
ROOT root
{
	OFFSET	0	13.1	24.9
	CHANNELS 6  Xposition Yposition Zposition Xrotation Yrotation Zrotation
	JOINT spine_1
	{
		OFFSET	0	9.99999	0
		CHANNELS 3  Xrotation Yrotation Zrotation
		JOINT spine_2
		{
			OFFSET	0	112	-10
			CHANNELS 3  Xrotation Yrotation Zrotation
			JOINT spine_3
			{
				OFFSET	0	206.5	19.3
				CHANNELS 3  Xrotation Yrotation Zrotation
				JOINT spine_4
				{
					OFFSET	0	110.4	14.6
					CHANNELS 3  Xrotation Yrotation Zrotation
					JOINT neck_1
					{
						OFFSET	0	71.8	-50.3
						CHANNELS 3  Xrotation Yrotation Zrotation
						JOINT neck_2
						{
							OFFSET	0	86.2	-25.8
							CHANNELS 3  Xrotation Yrotation Zrotation
							JOINT head_ee
							{
								OFFSET	0	179.8	-8.7
								CHANNELS 3  Xrotation Yrotation Zrotation
								End Site
								{
									OFFSET	1	0	0
								}
							}
						}
					}
					JOINT left_clavicle
					{
						OFFSET	-43.2	22.4	-70.8
						CHANNELS 3  Xrotation Yrotation Zrotation
						JOINT left_shoulder
						{
							OFFSET	-93.9	-5.79999	48.7
							CHANNELS 3  Xrotation Yrotation Zrotation
							JOINT left_elbow
							{
								OFFSET	-291.4	-30.8	15.2
								CHANNELS 3  Xrotation Yrotation Zrotation
								JOINT left_lowarm_twist
								{
									OFFSET	-110.7	-3.89999	13.6
									CHANNELS 3  Xrotation Yrotation Zrotation
									JOINT left_hand
									{
										OFFSET	-110.7	-3.89999	13.6
										CHANNELS 3  Xrotation Yrotation Zrotation
										JOINT left_ee
										{
											OFFSET	-80.8	-5.10001	12.1
											CHANNELS 3  Xrotation Yrotation Zrotation
											End Site
											{
												OFFSET	1	0	0
											}
										}
									}
								}
							}
						}
					}
					JOINT right_clavicle
					{
						OFFSET	43.2	22.4	-70.8
						CHANNELS 3  Xrotation Yrotation Zrotation
						JOINT right_shoulder
						{
							OFFSET	93.9	-5.79999	48.7
							CHANNELS 3  Xrotation Yrotation Zrotation
							JOINT right_elbow
							{
								OFFSET	291.4	-30.8	15.2
								CHANNELS 3  Xrotation Yrotation Zrotation
								JOINT right_lowarm_twist
								{
									OFFSET	110.7	-3.89999	13.6
									CHANNELS 3  Xrotation Yrotation Zrotation
									JOINT right_hand
									{
										OFFSET	110.7	-3.89999	13.6
										CHANNELS 3  Xrotation Yrotation Zrotation
										JOINT right_ee
										{
											OFFSET	80.8	-5.10001	12.1
											CHANNELS 3  Xrotation Yrotation Zrotation
											End Site
											{
												OFFSET	1	0	0
											}
										}
									}
								}
							}
						}
					}
				}
			}
		}
	}
	JOINT left_hip
	{
		OFFSET	-82.8	-127.5	0.300001
		CHANNELS 3  Xrotation Yrotation Zrotation
		JOINT left_knee
		{
			OFFSET	-28.2	-396.7	2.2
			CHANNELS 3  Xrotation Yrotation Zrotation
			JOINT left_ankle
			{
				OFFSET	-11.7	-411.3	35.4
				CHANNELS 3  Xrotation Yrotation Zrotation
				JOINT left_toes
				{
					OFFSET	0	-60	-88.6
					CHANNELS 3  Xrotation Yrotation Zrotation
					JOINT left_foot_ee
					{
						OFFSET	-22.5	-16.5	-42.2
						CHANNELS 3  Xrotation Yrotation Zrotation
						End Site
						{
							OFFSET	1	0	0
						}
					}
				}
			}
		}
	}
	JOINT right_hip
	{
		OFFSET	82.8	-127.5	0.300001
		CHANNELS 3  Xrotation Yrotation Zrotation
		JOINT right_knee
		{
			OFFSET	28.2	-396.7	2.2
			CHANNELS 3  Xrotation Yrotation Zrotation
			JOINT right_ankle
			{
				OFFSET	11.7	-411.3	35.4
				CHANNELS 3  Xrotation Yrotation Zrotation
				JOINT right_toes
				{
					OFFSET	0	-60	-88.6
					CHANNELS 3  Xrotation Yrotation Zrotation
					JOINT right_foot_ee
					{
						OFFSET	22.5	-16.5	-42.2
						CHANNELS 3  Xrotation Yrotation Zrotation
						End Site
						{
							OFFSET	1	0	0
						}
					}
				}
			}
		}
	}
}
MOTION
Frames: 12
Frame Time: 0.02
1120.46 698.701 -602.726 171.657 -68.7627 163.401 -2.1844 0.697319 5.66916 -2.1666 0.335762 5.7019 -2.11415 -1.0807 5.60891 -2.15798 -0.182825 5.70883 -18.6725 0.949005 -0.277845 -18.6773 1.9747 0.114579 -0.0 0.0 -0.0 -1.36455 21.6496 0.576593 20.5093 -34.2217 63.0459 1.4291 -35.294 0.454649 -37.9511 -2.73595 3.90966 -2.09297 14.0914 -7.29636 -0.0 0.0 -0.0 12.5302 26.9384 -24.4835 -13.6546 31.3239 -64.0764 0.229386 6.48294 -0.0129912 27.0223 -0.148747 3.41685 0.333602 15.4972 4.35193 0.0 0.0 0.0 16.5919 7.28215 12.2003 -38.3048 -0.36246 5.75951 33.4325 27.7429 -4.57416 -27.1326 0.0 0.0 -0.0 0.0 -0.0 30.1969 19.778 2.66529 -72.601 3.70272 -9.75496 40.4669 -24.611 5.19988 2.36871 -0.0 -0.0 0.0 0.0 0.0 
1136.91 700.83 -605.788 172.247 -67.8574 163.761 -2.00402 0.741199 5.65959 -1.98629 0.38016 5.69513 -1.93018 -1.01771 5.6166 -1.97415 -0.119404 5.70652 -18.628 1.14929 0.213902 -18.6334 2.09881 0.650752 -0.0 0.0 -0.0 -1.59826 21.2718 0.185038 21.1196 -35.1798 61.9412 1.62858 -38.8919 0.575015 -38.3148 -2.77375 3.93702 -2.21786 13.9397 -8.15856 -0.0 0.0 -0.0 12.837 25.5768 -25.3497 -16.2115 30.5702 -62.9289 0.212126 5.99884 -0.0111149 27.536 -0.135914 3.48122 0.521698 16.7383 3.62398 0.0 0.0 0.0 13.8766 4.01188 14.3977 -35.3303 -0.196715 5.33358 34.4767 28.052 -4.69998 -27.4964 0.0 0.0 -0.0 0.0 -0.0 33.9506 17.4839 2.58369 -71.8729 3.60879 -9.69309 41.1974 -25.1623 5.28692 1.05088 -0.0 -0.0 0.0 0.0 0.0 
1153.98 705.089 -605.485 171.828 -69.1794 163.125 -1.80817 0.767068 5.63075 -1.79063 0.407803 5.66798 -1.73293 -0.964792 5.60035 -1.77667 -0.0697008 5.68216 -20.1086 0.978941 0.619627 -20.1109 1.57384 0.985244 -0.0 0.0 -0.0 -0.47959 20.4078 1.67933 21.7636 -34.7281 60.6884 1.75457 -40.9922 0.655913 -38.2274 -2.76465 3.93046 -2.21452 13.5349 -8.33945 -0.0 0.0 -0.0 12.1633 24.1308 -23.9545 -17.2939 30.3728 -64.3778 0.209409 5.92255 -0.0108328 27.9447 -0.125293 3.53233 0.79698 17.634 2.17266 0.0 0.0 0.0 11.3625 3.35248 15.5939 -33.2457 -0.0938734 5.03033 36.928 27.8977 -4.95808 -27.7874 0.0 0.0 -0.0 0.0 -0.0 36.2168 14.9765 0.992506 -69.8147 3.34761 -9.51183 41.5777 -25.72 5.34178 0.382378 -0.0 -0.0 0.0 0.0 0.0 
1174.36 704.299 -608.224 170.269 -69.0867 161.476 -1.67227 0.639112 5.60311 -1.65486 0.281854 5.6323 -1.61107 -1.06721 5.53774 -1.6538 -0.180686 5.63644 -20.4215 0.938725 0.326934 -20.4252 1.64668 0.701526 -0.0 0.0 -0.0 0.177063 19.8066 2.57102 22.9831 -35.1808 59.844 1.75455 -40.992 0.655905 -38.868 -2.83159 3.97818 -2.3942 13.277 -9.61052 -0.0 0.0 -0.0 12.475 25.7368 -24.4981 -20.6433 29.3208 -64.3363 0.256825 7.25059 -0.016272 28.1042 -0.121048 3.55227 0.77213 17.7887 2.40584 0.0 0.0 0.0 9.72494 5.29444 15.6262 -34.4596 -0.152415 5.20737 35.6438 28.4146 -4.83969 -29.1531 0.0 0.0 -0.0 0.0 -0.0 39.1255 13.8637 0.694697 -66.9337 2.99335 -9.24272 42.0008 -24.4993 5.33902 -0.25605 0.0 0.0 0.0 0.0 0.0 
1192.32 704.914 -608.274 169.9 -69.1496 161.331 -1.55821 0.622595 5.40938 -1.54198 0.277641 5.43792 -1.50109 -1.01452 5.34992 -1.54097 -0.158173 5.44269 -19.1107 0.626163 -0.0539555 -19.1127 1.23442 0.200917 -0.0 0.0 -0.0 0.338077 19.6576 2.79284 24.1584 -35.6433 59.7015 1.88536 -43.0396 0.743471 -39.0471 -2.8504 3.99138 -2.4523 13.0661 -10.0887 -0.0 0.0 -0.0 12.28 25.2392 -24.1059 -22.3225 28.8016 -64.8605 0.219835 6.21515 -0.011935 28.2805 -0.116291 3.57429 0.737284 17.7028 2.60086 0.0 0.0 0.0 8.05865 4.47223 16.3361 -34.6635 -0.162617 5.23698 35.8839 28.2939 -4.86127 -29.5007 0.0 0.0 -0.0 0.0 -0.0 40.9881 13.0546 0.764345 -64.1156 2.66039 -8.9627 42.1576 -24.0336 5.33802 -0.671612 0.0 0.0 0.0 0.0 0.0 
1208.75 712.108 -607.422 170.067 -69.8017 161.719 -1.44809 0.495534 5.41777 -1.43178 0.150304 5.43825 -1.40387 -1.12981 5.32206 -1.44327 -0.27641 5.43331 -21.6507 0.700286 0.0750841 -21.6535 1.3154 0.381539 -0.0 0.0 -0.0 0.341708 19.407 2.7725 24.38 -36.0798 59.1955 2.02618 -45.1009 0.841437 -39.1322 -2.85935 3.99764 -2.43719 12.0178 -10.5264 -0.0 0.0 -0.0 12.2179 24.2247 -24.0702 -24.1553 28.9221 -64.8896 0.240683 6.7993 -0.0142978 28.639 -0.10641 3.61902 0.781447 18.0 2.43578 0.0 0.0 0.0 6.0833 1.6756 16.9864 -29.5783 0.0599885 4.48868 36.4099 26.9212 -4.87006 -30.1996 0.0 0.0 -0.0 0.0 -0.0 43.091 13.0342 1.00601 -61.3476 2.34724 -8.67221 40.8556 -24.2498 5.22494 -0.952074 0.0 0.0 0.0 0.0 0.0 
1221.15 713.391 -606.065 172.884 -69.7351 164.486 -1.19156 0.569859 5.33964 -1.17574 0.229429 5.36498 -1.14174 -1.01111 5.27409 -1.1805 -0.166727 5.36729 -22.6486 0.739898 0.818122 -22.6485 1.05021 1.10086 -0.0 0.0 -0.0 0.0861449 18.8641 2.33362 25.8465 -36.449 59.3199 2.1502 -46.8008 0.93058 -39.1184 -2.8579 3.99662 -2.51709 12.6387 -10.7229 -0.0 0.0 -0.0 12.154 23.8006 -23.9661 -24.9924 28.2504 -65.373 0.276752 7.80648 -0.0188828 28.6119 -0.107167 3.61564 0.83812 17.6197 1.89197 0.0 0.0 0.0 4.60552 1.09576 16.6157 -26.2698 0.168774 3.99264 37.3514 25.922 -4.93502 -30.2656 0.0 0.0 -0.0 0.0 -0.0 44.7667 12.8528 1.06136 -50.5985 1.27469 -7.41223 41.1601 -24.2605 5.2537 -1.17829 0.0 0.0 0.0 0.0 0.0 
1238.2 714.131 -603.444 172.889 -69.8079 164.968 -1.40096 0.522717 4.97931 -1.3872 0.205216 5.0024 -1.35768 -0.969533 4.91206 -1.39129 -0.182612 5.00328 -22.8968 0.916254 0.655367 -22.8993 1.46858 1.03564 -0.0 0.0 -0.0 -0.361705 18.5852 1.62833 26.4543 -36.6956 59.5107 2.40546 -49.9887 1.12153 -37.89 -2.72961 3.90504 -2.53401 12.2917 -11.0102 -0.0 0.0 -0.0 12.176 24.5069 -23.9452 -25.296 27.6455 -65.503 0.290866 8.19929 -0.0208478 29.224 -0.0896859 3.69188 0.807154 16.7397 1.71495 0.0 0.0 0.0 3.21872 -0.475737 17.104 -24.6316 0.211984 3.74496 36.5673 26.2106 -4.86334 -30.5218 0.0 0.0 -0.0 0.0 -0.0 44.8206 12.218 0.821109 -45.6344 0.863563 -6.76833 41.1424 -25.0843 5.27913 0.12285 -0.0 -0.0 0.0 0.0 0.0 
1252.29 716.416 -603.737 174.849 -70.544 166.893 -1.4065 0.519868 4.79197 -1.39376 0.214251 4.81527 -1.36493 -0.917409 4.73211 -1.39613 -0.159454 4.81739 -23.7388 1.59457 1.62093 -23.7414 2.35942 2.27166 -0.0 0.0 -0.0 -0.801224 18.338 0.93285 26.8703 -36.6057 59.4011 2.69973 -53.2037 1.35222 -37.2 -2.65842 3.8524 -2.56108 11.015 -11.8424 -0.0 0.0 -0.0 11.8478 22.3907 -23.3954 -26.2325 27.3665 -65.0045 0.329563 9.27228 -0.0267253 29.4418 -0.0832705 3.71895 0.904057 16.0667 0.77328 0.0 0.0 0.0 2.26115 -1.59407 17.3747 -20.8873 0.284037 3.17501 36.7282 27.5776 -4.92583 -31.0046 0.0 0.0 -0.0 0.0 -0.0 44.0047 12.2102 0.587824 -36.8357 0.277824 -5.55019 42.0682 -25.0928 5.36527 1.34646 -0.0 -0.0 0.0 0.0 0.0 
1267.45 718.239 -602.565 175.221 -71.0936 167.094 -1.54285 0.529173 4.71478 -1.53052 0.228431 4.73883 -1.50065 -0.896702 4.659 -1.5309 -0.150511 4.74194 -24.4672 1.86756 2.03764 -24.4694 2.72654 2.8147 -0.0 0.0 -0.0 -0.673979 18.3206 1.12316 27.3701 -36.5521 60.1053 2.92975 -55.421 1.53908 -36.4157 -2.57829 3.79153 -2.55094 11.0309 -11.7682 -0.0 0.0 -0.0 11.9652 22.4583 -23.6582 -27.2651 27.0559 -65.1818 0.342577 9.63169 -0.0288625 29.6629 -0.0766503 3.74642 0.900021 15.444 0.528716 0.0 0.0 0.0 0.579586 -2.54055 17.8331 -19.2036 0.304264 2.91747 36.8626 27.0728 -4.92255 -30.9281 0.0 0.0 -0.0 0.0 -0.0 44.5353 11.4935 0.62542 -33.8993 0.124927 -5.12581 42.341 -25.2231 5.39475 2.12381 -0.0 -0.0 0.0 0.0 0.0 
1278.44 716.749 -604.064 175.023 -71.7818 166.767 -1.66997 0.614365 4.68706 -1.65781 0.31521 4.71657 -1.62033 -0.816572 4.65616 -1.65056 -0.0718261 4.72652 -25.034 2.06739 2.77011 -25.0276 2.82318 3.6153 -0.0 0.0 -0.0 -1.00882 17.8138 0.544902 27.6558 -36.7744 60.75 3.14638 -57.3038 1.71946 -35.9497 -2.53108 3.75485 -2.50214 10.6848 -11.6272 -0.0 0.0 -0.0 11.8056 22.6015 -23.2803 -27.5607 26.8388 -65.5038 0.349584 9.82487 -0.0300465 30.0273 -0.0655109 3.79163 0.863763 14.9804 0.569988 0.0 0.0 0.0 -0.831104 -2.34518 18.1675 -17.6328 0.316305 2.67676 36.9983 27.0777 -4.93685 -30.8563 0.0 0.0 -0.0 0.0 -0.0 45.0084 11.5482 1.18949 -29.6477 -0.0574006 -4.49901 41.9396 -25.4229 5.3649 2.53642 -0.0 -0.0 0.0 0.0 0.0 
1295.06 712.224 -602.677 173.714 -73.1289 164.966 -1.77856 0.700721 4.64175 -1.76666 0.404265 4.67683 -1.72171 -0.728524 4.63748 -1.75171 0.0121828 4.69421 -25.1743 1.67032 3.00676 -25.1561 1.96507 3.6393 -0.0 0.0 -0.0 -1.17972 18.124 0.328666 28.1612 -36.7759 61.6087 3.35074 -58.9189 1.893 -35.5124 -2.48704 3.72009 -2.60534 11.104 -12.0851 -0.0 0.0 -0.0 11.9136 22.1129 -23.5703 -27.1885 26.8762 -65.6168 0.295853 8.33793 -0.021565 30.0774 -0.0639554 3.79785 0.89404 13.8568 -0.1216 0.0 0.0 0.0 -1.80353 -2.07143 18.2206 -19.2237 0.304068 2.92054 38.6499 25.9486 -5.06705 -30.8771 0.0 0.0 -0.0 0.0 -0.0 45.1322 11.2278 1.35042 -26.0591 -0.174726 -3.96086 39.1747 -25.4555 5.10266 2.87848 -0.0 -0.0 0.0 0.0 0.0 
